<?xml version="1.0" encoding="UTF-8"?><svg xmlns="http://www.w3.org/2000/svg" xmlns:xlink="http://www.w3.org/1999/xlink" fill-opacity="1" color-rendering="auto" color-interpolation="auto" text-rendering="auto" stroke="black" stroke-linecap="square" width="394" stroke-miterlimit="10" shape-rendering="auto" stroke-opacity="1" fill="black" stroke-dasharray="none" font-weight="normal" stroke-width="1" height="400" font-family="'Dialog'" font-style="normal" stroke-linejoin="miter" font-size="12px" stroke-dashoffset="0" image-rendering="auto">
  <!--Generated by ySVG 2.5-->
  <defs id="genericDefs"/>
  <g>
    <defs id="defs1">
      <clipPath clipPathUnits="userSpaceOnUse" id="clipPath1">
        <path d="M0 0 L394 0 L394 400 L0 400 L0 0 Z"/>
      </clipPath>
      <clipPath clipPathUnits="userSpaceOnUse" id="clipPath2">
        <path d="M430 61 L813.165 61 L813.165 450 L430 450 L430 61 Z"/>
      </clipPath>
    </defs>
    <g transform="matrix(1.0283,0,0,1.0283,-442.1594,-62.7249)" fill-opacity="0.1961" fill="rgb(204,0,51)" text-rendering="geometricPrecision" shape-rendering="geometricPrecision" stroke="rgb(204,0,51)" stroke-opacity="0.1961">
      <rect x="641.235" width="130.99" height="144.4296" y="185.4704" clip-path="url(#clipPath2)" stroke="none"/>
    </g>
    <g text-rendering="geometricPrecision" stroke-miterlimit="1.45" shape-rendering="geometricPrecision" transform="matrix(1.0283,0,0,1.0283,-442.1594,-62.7249)" stroke-linecap="butt">
      <rect fill="none" x="641.235" width="130.99" height="144.4296" y="185.4704" clip-path="url(#clipPath2)"/>
    </g>
    <g transform="matrix(1.0283,0,0,1.0283,-442.1594,-62.7249)" fill-opacity="0.1961" fill="rgb(50,101,255)" text-rendering="geometricPrecision" shape-rendering="geometricPrecision" stroke="rgb(50,101,255)" stroke-opacity="0.1961">
      <rect x="471.355" width="130.99" height="144.4296" y="185.7681" clip-path="url(#clipPath2)" stroke="none"/>
    </g>
    <g text-rendering="geometricPrecision" stroke-miterlimit="1.45" shape-rendering="geometricPrecision" transform="matrix(1.0283,0,0,1.0283,-442.1594,-62.7249)" stroke-linecap="butt">
      <rect fill="none" x="471.355" width="130.99" height="144.4296" y="185.7681" clip-path="url(#clipPath2)"/>
      <text x="502.3466" font-size="40px" y="413.1129" clip-path="url(#clipPath2)" font-family="sans-serif" stroke="none" font-weight="bold" xml:space="preserve">Hello world!</text>
    </g>
    <g fill="rgb(51,102,255)" text-rendering="geometricPrecision" shape-rendering="geometricPrecision" transform="matrix(1.0283,0,0,1.0283,-442.1594,-62.7249)" stroke="rgb(51,102,255)">
      <rect x="491.125" width="26.6" height="87.8" y="213.7852" clip-path="url(#clipPath2)" stroke="none"/>
    </g>
    <g text-rendering="geometricPrecision" stroke-miterlimit="1.45" shape-rendering="geometricPrecision" transform="matrix(1.0283,0,0,1.0283,-442.1594,-62.7249)" stroke-linecap="butt">
      <rect fill="none" x="491.125" width="26.6" height="87.8" y="213.7852" clip-path="url(#clipPath2)"/>
    </g>
    <g fill="rgb(51,102,255)" text-rendering="geometricPrecision" shape-rendering="geometricPrecision" transform="matrix(1.0283,0,0,1.0283,-442.1594,-62.7249)" stroke="rgb(51,102,255)">
      <rect x="553.225" width="26.6" height="87.8" y="213.7852" clip-path="url(#clipPath2)" stroke="none"/>
    </g>
    <g text-rendering="geometricPrecision" stroke-miterlimit="1.45" shape-rendering="geometricPrecision" transform="matrix(1.0283,0,0,1.0283,-442.1594,-62.7249)" stroke-linecap="butt">
      <rect fill="none" x="553.225" width="26.6" height="87.8" y="213.7852" clip-path="url(#clipPath2)"/>
    </g>
    <g fill="rgb(204,0,51)" text-rendering="geometricPrecision" shape-rendering="geometricPrecision" transform="matrix(1.0283,0,0,1.0283,-442.1594,-62.7249)" stroke="rgb(204,0,51)">
      <rect x="663.86" width="26.6" height="87.8" y="213.7852" clip-path="url(#clipPath2)" stroke="none"/>
    </g>
    <g text-rendering="geometricPrecision" stroke-miterlimit="1.45" shape-rendering="geometricPrecision" transform="matrix(1.0283,0,0,1.0283,-442.1594,-62.7249)" stroke-linecap="butt">
      <rect fill="none" x="663.86" width="26.6" height="87.8" y="213.7852" clip-path="url(#clipPath2)"/>
    </g>
    <g fill="rgb(204,0,51)" text-rendering="geometricPrecision" shape-rendering="geometricPrecision" transform="matrix(1.0283,0,0,1.0283,-442.1594,-62.7249)" stroke="rgb(204,0,51)">
      <rect x="725.96" width="26.6" height="87.8" y="213.7852" clip-path="url(#clipPath2)" stroke="none"/>
    </g>
    <g text-rendering="geometricPrecision" stroke-miterlimit="1.45" shape-rendering="geometricPrecision" transform="matrix(1.0283,0,0,1.0283,-442.1594,-62.7249)" stroke-linecap="butt">
      <rect fill="none" x="725.96" width="26.6" height="87.8" y="213.7852" clip-path="url(#clipPath2)"/>
      <text x="508.9873" font-size="40px" y="136.3743" clip-path="url(#clipPath2)" font-family="sans-serif" stroke="none" font-weight="bold" xml:space="preserve">Ahoj světe!</text>
      <path fill="none" d="M517.725 257.6852 L542.225 257.6852" stroke-width="4" clip-path="url(#clipPath2)"/>
      <path d="M553.225 257.6852 L536.725 250.8102 L540.85 257.6852 L536.725 264.5602 Z" stroke-width="4" clip-path="url(#clipPath2)" stroke="none"/>
      <path fill="none" d="M579.825 257.6852 L652.86 257.6852" stroke-width="4" clip-path="url(#clipPath2)"/>
      <path d="M663.86 257.6852 L647.36 250.8102 L651.485 257.6852 L647.36 264.5602 Z" stroke-width="4" clip-path="url(#clipPath2)" stroke="none"/>
      <path fill="none" d="M690.46 257.6852 L714.96 257.6852" stroke-width="4" clip-path="url(#clipPath2)"/>
      <path d="M725.96 257.6852 L709.46 250.8102 L713.585 257.6852 L709.46 264.5602 Z" stroke-width="4" clip-path="url(#clipPath2)" stroke="none"/>
      <path fill="none" d="M752.56 257.6852 L798.4807 257.6852 L798.4807 397.4 L746.79 397.4" stroke-width="4" clip-path="url(#clipPath2)"/>
      <path d="M735.79 397.4 L752.29 404.275 L748.165 397.4 L752.29 390.525 Z" stroke-width="4" clip-path="url(#clipPath2)" stroke="none"/>
      <path fill="none" d="M507.29 120.6614 L445.0145 120.6614 L445.0145 253.0821 L445.0145 257.6852 L480.125 257.6852" stroke-width="4" clip-path="url(#clipPath2)"/>
      <path d="M491.125 257.6852 L474.625 250.8102 L478.75 257.6852 L474.625 264.5602 Z" stroke-width="4" clip-path="url(#clipPath2)" stroke="none"/>
    </g>
  </g>
</svg>
