<?xml version="1.0" encoding="UTF-8"?><svg xmlns="http://www.w3.org/2000/svg" xmlns:xlink="http://www.w3.org/1999/xlink" fill-opacity="1" color-rendering="auto" color-interpolation="auto" text-rendering="auto" stroke="black" stroke-linecap="square" width="697" stroke-miterlimit="10" shape-rendering="auto" stroke-opacity="1" fill="black" stroke-dasharray="none" font-weight="normal" stroke-width="1" height="305" font-family="'Dialog'" font-style="normal" stroke-linejoin="miter" font-size="12px" stroke-dashoffset="0" image-rendering="auto">
  <!--Generated by ySVG 2.5-->
  <defs id="genericDefs"/>
  <g>
    <defs id="defs1">
      <linearGradient x1="133.9331" gradientUnits="userSpaceOnUse" x2="289.2995" y1="-44.6907" y2="3.9109" id="linearGradient1" spreadMethod="reflect">
        <stop stop-opacity="1" stop-color="rgb(232,238,247)" offset="0%"/>
        <stop stop-opacity="1" stop-color="rgb(183,201,227)" offset="100%"/>
      </linearGradient>
      <linearGradient x1="171.6163" gradientUnits="userSpaceOnUse" x2="251.6163" y1="50.146" y2="90.146" id="linearGradient2" spreadMethod="reflect">
        <stop stop-opacity="1" stop-color="rgb(232,238,247)" offset="0%"/>
        <stop stop-opacity="1" stop-color="rgb(183,201,227)" offset="100%"/>
      </linearGradient>
      <linearGradient x1="122.0547" gradientUnits="userSpaceOnUse" x2="301.1779" y1="142.2981" y2="194.5861" id="linearGradient3" spreadMethod="reflect">
        <stop stop-opacity="1" stop-color="rgb(232,238,247)" offset="0%"/>
        <stop stop-opacity="1" stop-color="rgb(183,201,227)" offset="100%"/>
      </linearGradient>
      <linearGradient x1="360.6641" gradientUnits="userSpaceOnUse" x2="496.6641" y1="-44.6907" y2="24.9093" id="linearGradient4" spreadMethod="reflect">
        <stop stop-opacity="1" stop-color="rgb(232,238,247)" offset="0%"/>
        <stop stop-opacity="1" stop-color="rgb(183,201,227)" offset="100%"/>
      </linearGradient>
      <linearGradient x1="388.6641" gradientUnits="userSpaceOnUse" x2="468.6641" y1="107.4421" y2="147.4421" id="linearGradient5" spreadMethod="reflect">
        <stop stop-opacity="1" stop-color="rgb(232,238,247)" offset="0%"/>
        <stop stop-opacity="1" stop-color="rgb(183,201,227)" offset="100%"/>
      </linearGradient>
      <linearGradient x1="441.0249" gradientUnits="userSpaceOnUse" x2="582.0249" y1="177.4421" y2="229.7301" id="linearGradient6" spreadMethod="reflect">
        <stop stop-opacity="1" stop-color="rgb(232,238,247)" offset="0%"/>
        <stop stop-opacity="1" stop-color="rgb(183,201,227)" offset="100%"/>
      </linearGradient>
      <linearGradient x1="576.3857" gradientUnits="userSpaceOnUse" x2="656.3857" y1="107.4421" y2="147.4421" id="linearGradient7" spreadMethod="reflect">
        <stop stop-opacity="1" stop-color="rgb(232,238,247)" offset="0%"/>
        <stop stop-opacity="1" stop-color="rgb(183,201,227)" offset="100%"/>
      </linearGradient>
      <linearGradient x1="708.3857" gradientUnits="userSpaceOnUse" x2="788.3857" y1="107.4421" y2="147.4421" id="linearGradient8" spreadMethod="reflect">
        <stop stop-opacity="1" stop-color="rgb(232,238,247)" offset="0%"/>
        <stop stop-opacity="1" stop-color="rgb(183,201,227)" offset="100%"/>
      </linearGradient>
      <linearGradient x1="548.3857" gradientUnits="userSpaceOnUse" x2="684.3857" y1="-44.6907" y2="24.9093" id="linearGradient9" spreadMethod="reflect">
        <stop stop-opacity="1" stop-color="rgb(232,238,247)" offset="0%"/>
        <stop stop-opacity="1" stop-color="rgb(183,201,227)" offset="100%"/>
      </linearGradient>
      <clipPath clipPathUnits="userSpaceOnUse" id="clipPath1">
        <path d="M0 0 L697 0 L697 305 L0 305 L0 0 Z"/>
      </clipPath>
      <clipPath clipPathUnits="userSpaceOnUse" id="clipPath2">
        <path d="M107 -60 L804 -60 L804 245 L107 245 L107 -60 Z"/>
      </clipPath>
    </defs>
    <g fill="url(#linearGradient1)" text-rendering="geometricPrecision" shape-rendering="geometricPrecision" transform="matrix(1,0,0,1,-107,60)" stroke="url(#linearGradient1)">
      <path d="M146.3265 -44.6907 L289.2995 -44.6907 L276.9061 3.9109 L133.9331 3.9109 Z" stroke="none" clip-path="url(#clipPath2)"/>
    </g>
    <g text-rendering="geometricPrecision" stroke-miterlimit="1.45" shape-rendering="geometricPrecision" transform="matrix(1,0,0,1,-107,60)" stroke-linecap="butt">
      <path fill="none" d="M146.3265 -44.6907 L289.2995 -44.6907 L276.9061 3.9109 L133.9331 3.9109 Z" clip-path="url(#clipPath2)"/>
      <text x="190.9386" xml:space="preserve" y="-23.0267" clip-path="url(#clipPath2)" font-family="sans-serif" stroke="none">Dataset</text>
      <text x="150.2599" xml:space="preserve" y="-8.3255" clip-path="url(#clipPath2)" font-family="sans-serif" stroke="none">se zarovnanými větami</text>
    </g>
    <g fill="url(#linearGradient2)" text-rendering="geometricPrecision" shape-rendering="geometricPrecision" transform="matrix(1,0,0,1,-107,60)" stroke="url(#linearGradient2)">
      <path d="M171.6163 50.146 L251.6163 50.146 L251.6163 90.146 L171.6163 90.146 Z" stroke="none" clip-path="url(#clipPath2)"/>
    </g>
    <g text-rendering="geometricPrecision" stroke-miterlimit="1.45" shape-rendering="geometricPrecision" transform="matrix(1,0,0,1,-107,60)" stroke-linecap="butt">
      <path fill="none" d="M171.6163 50.146 L251.6163 50.146 L251.6163 90.146 L171.6163 90.146 Z" clip-path="url(#clipPath2)"/>
      <text x="185.2726" xml:space="preserve" y="74.8599" clip-path="url(#clipPath2)" font-family="sans-serif" stroke="none">Tokenizer</text>
    </g>
    <g fill="url(#linearGradient3)" text-rendering="geometricPrecision" shape-rendering="geometricPrecision" transform="matrix(1,0,0,1,-107,60)" stroke="url(#linearGradient3)">
      <path d="M135.3881 142.2981 L301.1779 142.2981 L287.8445 194.5861 L122.0547 194.5861 Z" stroke="none" clip-path="url(#clipPath2)"/>
    </g>
    <g text-rendering="geometricPrecision" stroke-miterlimit="1.45" shape-rendering="geometricPrecision" transform="matrix(1,0,0,1,-107,60)" stroke-linecap="butt">
      <path fill="none" d="M135.3881 142.2981 L301.1779 142.2981 L287.8445 194.5861 L122.0547 194.5861 Z" clip-path="url(#clipPath2)"/>
      <text x="135.5704" xml:space="preserve" y="173.1559" clip-path="url(#clipPath2)" font-family="sans-serif" stroke="none">Dataset rozdělený na tokeny</text>
    </g>
    <g fill="url(#linearGradient4)" text-rendering="geometricPrecision" shape-rendering="geometricPrecision" transform="matrix(1,0,0,1,-107,60)" stroke="url(#linearGradient4)">
      <path d="M378.4121 -44.6907 L496.6641 -44.6907 L478.9161 24.9093 L360.6641 24.9093 Z" stroke="none" clip-path="url(#clipPath2)"/>
    </g>
    <g text-rendering="geometricPrecision" stroke-miterlimit="1.45" shape-rendering="geometricPrecision" transform="matrix(1,0,0,1,-107,60)" stroke-linecap="butt">
      <path fill="none" d="M378.4121 -44.6907 L496.6641 -44.6907 L478.9161 24.9093 L360.6641 24.9093 Z" clip-path="url(#clipPath2)"/>
      <text x="379.9727" xml:space="preserve" y="-5.1769" clip-path="url(#clipPath2)" font-family="sans-serif" stroke="none">Word embeddings</text>
    </g>
    <g fill="url(#linearGradient5)" text-rendering="geometricPrecision" shape-rendering="geometricPrecision" transform="matrix(1,0,0,1,-107,60)" stroke="url(#linearGradient5)">
      <path d="M388.6641 107.4421 L468.6641 107.4421 L468.6641 147.4421 L388.6641 147.4421 Z" stroke="none" clip-path="url(#clipPath2)"/>
    </g>
    <g text-rendering="geometricPrecision" stroke-miterlimit="1.45" shape-rendering="geometricPrecision" transform="matrix(1,0,0,1,-107,60)" stroke-linecap="butt">
      <path fill="none" d="M388.6641 107.4421 L468.6641 107.4421 L468.6641 147.4421 L388.6641 147.4421 Z" clip-path="url(#clipPath2)"/>
      <text x="406.3164" xml:space="preserve" y="132.1559" clip-path="url(#clipPath2)" font-family="sans-serif" stroke="none">Enkodér</text>
    </g>
    <g fill="url(#linearGradient6)" text-rendering="geometricPrecision" shape-rendering="geometricPrecision" transform="matrix(1,0,0,1,-107,60)" stroke="url(#linearGradient6)">
      <path d="M454.3583 177.4421 L582.0249 177.4421 L568.6915 229.7301 L441.0249 229.7301 Z" stroke="none" clip-path="url(#clipPath2)"/>
    </g>
    <g text-rendering="geometricPrecision" stroke-miterlimit="1.45" shape-rendering="geometricPrecision" transform="matrix(1,0,0,1,-107,60)" stroke-linecap="butt">
      <path fill="none" d="M454.3583 177.4421 L582.0249 177.4421 L568.6915 229.7301 L441.0249 229.7301 Z" clip-path="url(#clipPath2)"/>
      <text x="457.9174" xml:space="preserve" y="208.2999" clip-path="url(#clipPath2)" font-family="sans-serif" stroke="none">"Myšlenkový" vektor</text>
    </g>
    <g fill="url(#linearGradient7)" text-rendering="geometricPrecision" shape-rendering="geometricPrecision" transform="matrix(1,0,0,1,-107,60)" stroke="url(#linearGradient7)">
      <path d="M576.3857 107.4421 L656.3857 107.4421 L656.3857 147.4421 L576.3857 147.4421 Z" stroke="none" clip-path="url(#clipPath2)"/>
    </g>
    <g text-rendering="geometricPrecision" stroke-miterlimit="1.45" shape-rendering="geometricPrecision" transform="matrix(1,0,0,1,-107,60)" stroke-linecap="butt">
      <path fill="none" d="M576.3857 107.4421 L656.3857 107.4421 L656.3857 147.4421 L576.3857 147.4421 Z" clip-path="url(#clipPath2)"/>
      <text x="593.707" xml:space="preserve" y="132.1559" clip-path="url(#clipPath2)" font-family="sans-serif" stroke="none">Dekodér</text>
    </g>
    <g fill="url(#linearGradient8)" text-rendering="geometricPrecision" shape-rendering="geometricPrecision" transform="matrix(1,0,0,1,-107,60)" stroke="url(#linearGradient8)">
      <path d="M718.5856 107.4421 L788.3857 107.4421 L778.1857 147.4421 L708.3857 147.4421 Z" stroke="none" clip-path="url(#clipPath2)"/>
    </g>
    <g text-rendering="geometricPrecision" stroke-miterlimit="1.45" shape-rendering="geometricPrecision" transform="matrix(1,0,0,1,-107,60)" stroke-linecap="butt">
      <path fill="none" d="M718.5856 107.4421 L788.3857 107.4421 L778.1857 147.4421 L708.3857 147.4421 Z" clip-path="url(#clipPath2)"/>
      <text x="728.0419" xml:space="preserve" y="132.1559" clip-path="url(#clipPath2)" font-family="sans-serif" stroke="none">Překlad</text>
    </g>
    <g fill="url(#linearGradient9)" text-rendering="geometricPrecision" shape-rendering="geometricPrecision" transform="matrix(1,0,0,1,-107,60)" stroke="url(#linearGradient9)">
      <path d="M566.1337 -44.6907 L684.3857 -44.6907 L666.6376 24.9093 L548.3857 24.9093 Z" stroke="none" clip-path="url(#clipPath2)"/>
    </g>
    <g text-rendering="geometricPrecision" stroke-miterlimit="1.45" shape-rendering="geometricPrecision" transform="matrix(1,0,0,1,-107,60)" stroke-linecap="butt">
      <path fill="none" d="M566.1337 -44.6907 L684.3857 -44.6907 L666.6376 24.9093 L548.3857 24.9093 Z" clip-path="url(#clipPath2)"/>
      <text x="567.6943" xml:space="preserve" y="-5.1769" clip-path="url(#clipPath2)" font-family="sans-serif" stroke="none">Word embeddings</text>
    </g>
    <g text-rendering="geometricPrecision" stroke-miterlimit="1.45" shape-rendering="geometricPrecision" transform="matrix(1,0,0,1,-107,60)" stroke-linecap="butt">
      <path fill="none" d="M211.6163 3.8797 L211.6163 42.1173" clip-path="url(#clipPath2)"/>
    </g>
    <g text-rendering="geometricPrecision" stroke-miterlimit="1.45" shape-rendering="geometricPrecision" transform="matrix(1,0,0,1,-107,60)" stroke-linecap="butt">
      <path d="M211.6163 50.1173 L216.6163 38.1173 L211.6163 41.1173 L206.6163 38.1173 Z" stroke="none" clip-path="url(#clipPath2)"/>
      <path fill="none" d="M211.6163 90.1604 L211.6163 134.3354" clip-path="url(#clipPath2)"/>
      <path d="M211.6163 142.3354 L216.6163 130.3354 L211.6163 133.3354 L206.6163 130.3354 Z" clip-path="url(#clipPath2)" stroke="none"/>
      <path fill="none" d="M298.7057 151.991 L380.7939 136.4847" clip-path="url(#clipPath2)"/>
      <path d="M388.6549 134.9998 L375.9354 132.314 L379.8113 136.6703 L377.7915 142.1403 Z" clip-path="url(#clipPath2)" stroke="none"/>
      <path fill="none" d="M428.6641 24.8783 L428.6641 99.4351" clip-path="url(#clipPath2)"/>
      <path d="M428.6641 107.4351 L433.6641 95.4351 L428.6641 98.4351 L423.6641 95.4351 Z" clip-path="url(#clipPath2)" stroke="none"/>
      <path fill="none" d="M450.411 147.4262 L477.1961 172.04" clip-path="url(#clipPath2)"/>
      <path d="M483.0866 177.4531 L477.6339 165.6519 L476.4597 171.3634 L470.8676 173.0151 Z" clip-path="url(#clipPath2)" stroke="none"/>
      <path fill="none" d="M547.5452 177.4302 L582.3828 152.133" clip-path="url(#clipPath2)"/>
      <path d="M588.8562 147.4324 L576.2083 150.4375 L581.5737 152.7206 L582.084 158.5292 Z" clip-path="url(#clipPath2)" stroke="none"/>
      <path fill="none" d="M656.3788 127.4421 L705.4788 127.4421" clip-path="url(#clipPath2)"/>
      <path d="M713.4788 127.4421 L701.4788 122.4421 L704.4788 127.4421 L701.4788 132.4421 Z" clip-path="url(#clipPath2)" stroke="none"/>
      <path fill="none" d="M616.3857 24.8783 L616.3857 99.4351" clip-path="url(#clipPath2)"/>
      <path d="M616.3857 107.4351 L621.3857 95.4351 L616.3857 98.4351 L611.3857 95.4351 Z" clip-path="url(#clipPath2)" stroke="none"/>
    </g>
  </g>
</svg>
