<?xml version="1.0" encoding="UTF-8"?><svg xmlns="http://www.w3.org/2000/svg" xmlns:xlink="http://www.w3.org/1999/xlink" fill-opacity="1" color-rendering="auto" color-interpolation="auto" text-rendering="auto" stroke="black" stroke-linecap="square" width="636" stroke-miterlimit="10" shape-rendering="auto" stroke-opacity="1" fill="black" stroke-dasharray="none" font-weight="normal" stroke-width="1" height="270" font-family="'Dialog'" font-style="normal" stroke-linejoin="miter" font-size="12px" stroke-dashoffset="0" image-rendering="auto">
  <!--Generated by ySVG 2.5-->
  <defs id="genericDefs"/>
  <g>
    <defs id="defs1">
      <linearGradient x1="133.9331" gradientUnits="userSpaceOnUse" x2="289.2995" y1="-85.6907" y2="-37.0891" id="linearGradient1" spreadMethod="reflect">
        <stop stop-opacity="1" stop-color="rgb(232,238,247)" offset="0%"/>
        <stop stop-opacity="1" stop-color="rgb(183,201,227)" offset="100%"/>
      </linearGradient>
      <linearGradient x1="171.6163" gradientUnits="userSpaceOnUse" x2="251.6163" y1="9.146" y2="49.146" id="linearGradient2" spreadMethod="reflect">
        <stop stop-opacity="1" stop-color="rgb(232,238,247)" offset="0%"/>
        <stop stop-opacity="1" stop-color="rgb(183,201,227)" offset="100%"/>
      </linearGradient>
      <linearGradient x1="122.0547" gradientUnits="userSpaceOnUse" x2="301.1779" y1="101.2981" y2="153.5861" id="linearGradient3" spreadMethod="reflect">
        <stop stop-opacity="1" stop-color="rgb(232,238,247)" offset="0%"/>
        <stop stop-opacity="1" stop-color="rgb(183,201,227)" offset="100%"/>
      </linearGradient>
      <linearGradient x1="348.6641" gradientUnits="userSpaceOnUse" x2="484.6641" y1="-44.6907" y2="24.9093" id="linearGradient4" spreadMethod="reflect">
        <stop stop-opacity="1" stop-color="rgb(232,238,247)" offset="0%"/>
        <stop stop-opacity="1" stop-color="rgb(183,201,227)" offset="100%"/>
      </linearGradient>
      <linearGradient x1="376.6641" gradientUnits="userSpaceOnUse" x2="456.6641" y1="107.4421" y2="147.4421" id="linearGradient5" spreadMethod="reflect">
        <stop stop-opacity="1" stop-color="rgb(232,238,247)" offset="0%"/>
        <stop stop-opacity="1" stop-color="rgb(183,201,227)" offset="100%"/>
      </linearGradient>
      <linearGradient x1="486.6641" gradientUnits="userSpaceOnUse" x2="627.6641" y1="40.0317" y2="92.3197" id="linearGradient6" spreadMethod="reflect">
        <stop stop-opacity="1" stop-color="rgb(232,238,247)" offset="0%"/>
        <stop stop-opacity="1" stop-color="rgb(183,201,227)" offset="100%"/>
      </linearGradient>
      <linearGradient x1="647.3857" gradientUnits="userSpaceOnUse" x2="727.3857" y1="107.4421" y2="147.4421" id="linearGradient7" spreadMethod="reflect">
        <stop stop-opacity="1" stop-color="rgb(232,238,247)" offset="0%"/>
        <stop stop-opacity="1" stop-color="rgb(183,201,227)" offset="100%"/>
      </linearGradient>
      <linearGradient x1="647.3857" gradientUnits="userSpaceOnUse" x2="727.3857" y1="-44.6907" y2="-4.6907" id="linearGradient8" spreadMethod="reflect">
        <stop stop-opacity="1" stop-color="rgb(232,238,247)" offset="0%"/>
        <stop stop-opacity="1" stop-color="rgb(183,201,227)" offset="100%"/>
      </linearGradient>
      <clipPath clipPathUnits="userSpaceOnUse" id="clipPath1">
        <path d="M0 0 L636 0 L636 270 L0 270 L0 0 Z"/>
      </clipPath>
      <clipPath clipPathUnits="userSpaceOnUse" id="clipPath2">
        <path d="M107 -101 L743 -101 L743 169 L107 169 L107 -101 Z"/>
      </clipPath>
    </defs>
    <g fill="url(#linearGradient1)" text-rendering="geometricPrecision" shape-rendering="geometricPrecision" transform="matrix(1,0,0,1,-107,101)" stroke="url(#linearGradient1)">
      <path d="M146.3265 -85.6907 L289.2995 -85.6907 L276.9061 -37.0891 L133.9331 -37.0891 Z" stroke="none" clip-path="url(#clipPath2)"/>
    </g>
    <g text-rendering="geometricPrecision" stroke-miterlimit="1.45" shape-rendering="geometricPrecision" transform="matrix(1,0,0,1,-107,101)" stroke-linecap="butt">
      <path fill="none" d="M146.3265 -85.6907 L289.2995 -85.6907 L276.9061 -37.0891 L133.9331 -37.0891 Z" clip-path="url(#clipPath2)"/>
      <text x="190.9386" xml:space="preserve" y="-64.0266" clip-path="url(#clipPath2)" font-family="sans-serif" stroke="none">Dataset</text>
      <text x="150.2599" xml:space="preserve" y="-49.3255" clip-path="url(#clipPath2)" font-family="sans-serif" stroke="none">se zarovnanými větami</text>
    </g>
    <g fill="url(#linearGradient2)" text-rendering="geometricPrecision" shape-rendering="geometricPrecision" transform="matrix(1,0,0,1,-107,101)" stroke="url(#linearGradient2)">
      <path d="M171.6163 9.146 L251.6163 9.146 L251.6163 49.146 L171.6163 49.146 Z" stroke="none" clip-path="url(#clipPath2)"/>
    </g>
    <g text-rendering="geometricPrecision" stroke-miterlimit="1.45" shape-rendering="geometricPrecision" transform="matrix(1,0,0,1,-107,101)" stroke-linecap="butt">
      <path fill="none" d="M171.6163 9.146 L251.6163 9.146 L251.6163 49.146 L171.6163 49.146 Z" clip-path="url(#clipPath2)"/>
      <text x="185.2726" xml:space="preserve" y="33.8599" clip-path="url(#clipPath2)" font-family="sans-serif" stroke="none">Tokenizer</text>
    </g>
    <g fill="url(#linearGradient3)" text-rendering="geometricPrecision" shape-rendering="geometricPrecision" transform="matrix(1,0,0,1,-107,101)" stroke="url(#linearGradient3)">
      <path d="M135.3881 101.2981 L301.1779 101.2981 L287.8445 153.5861 L122.0547 153.5861 Z" stroke="none" clip-path="url(#clipPath2)"/>
    </g>
    <g text-rendering="geometricPrecision" stroke-miterlimit="1.45" shape-rendering="geometricPrecision" transform="matrix(1,0,0,1,-107,101)" stroke-linecap="butt">
      <path fill="none" d="M135.3881 101.2981 L301.1779 101.2981 L287.8445 153.5861 L122.0547 153.5861 Z" clip-path="url(#clipPath2)"/>
      <text x="135.5704" xml:space="preserve" y="132.1559" clip-path="url(#clipPath2)" font-family="sans-serif" stroke="none">Dataset rozdělený na tokeny</text>
    </g>
    <g fill="url(#linearGradient4)" text-rendering="geometricPrecision" shape-rendering="geometricPrecision" transform="matrix(1,0,0,1,-107,101)" stroke="url(#linearGradient4)">
      <path d="M366.4121 -44.6907 L484.6641 -44.6907 L466.9161 24.9093 L348.6641 24.9093 Z" stroke="none" clip-path="url(#clipPath2)"/>
    </g>
    <g text-rendering="geometricPrecision" stroke-miterlimit="1.45" shape-rendering="geometricPrecision" transform="matrix(1,0,0,1,-107,101)" stroke-linecap="butt">
      <path fill="none" d="M366.4121 -44.6907 L484.6641 -44.6907 L466.9161 24.9093 L348.6641 24.9093 Z" clip-path="url(#clipPath2)"/>
      <text x="367.9727" xml:space="preserve" y="-5.1769" clip-path="url(#clipPath2)" font-family="sans-serif" stroke="none">Word embeddings</text>
    </g>
    <g fill="url(#linearGradient5)" text-rendering="geometricPrecision" shape-rendering="geometricPrecision" transform="matrix(1,0,0,1,-107,101)" stroke="url(#linearGradient5)">
      <path d="M376.6641 107.4421 L456.6641 107.4421 L456.6641 147.4421 L376.6641 147.4421 Z" stroke="none" clip-path="url(#clipPath2)"/>
    </g>
    <g text-rendering="geometricPrecision" stroke-miterlimit="1.45" shape-rendering="geometricPrecision" transform="matrix(1,0,0,1,-107,101)" stroke-linecap="butt">
      <path fill="none" d="M376.6641 107.4421 L456.6641 107.4421 L456.6641 147.4421 L376.6641 147.4421 Z" clip-path="url(#clipPath2)"/>
      <text x="394.3164" xml:space="preserve" y="132.1559" clip-path="url(#clipPath2)" font-family="sans-serif" stroke="none">Enkodér</text>
    </g>
    <g fill="url(#linearGradient6)" text-rendering="geometricPrecision" shape-rendering="geometricPrecision" transform="matrix(1,0,0,1,-107,101)" stroke="url(#linearGradient6)">
      <path d="M499.9976 40.0317 L627.6641 40.0317 L614.3307 92.3197 L486.6641 92.3197 Z" stroke="none" clip-path="url(#clipPath2)"/>
    </g>
    <g text-rendering="geometricPrecision" stroke-miterlimit="1.45" shape-rendering="geometricPrecision" transform="matrix(1,0,0,1,-107,101)" stroke-linecap="butt">
      <path fill="none" d="M499.9976 40.0317 L627.6641 40.0317 L614.3307 92.3197 L486.6641 92.3197 Z" clip-path="url(#clipPath2)"/>
      <text x="503.5567" xml:space="preserve" y="70.8895" clip-path="url(#clipPath2)" font-family="sans-serif" stroke="none">"Myšlenkový" vektor</text>
    </g>
    <g fill="url(#linearGradient7)" text-rendering="geometricPrecision" shape-rendering="geometricPrecision" transform="matrix(1,0,0,1,-107,101)" stroke="url(#linearGradient7)">
      <path d="M647.3857 107.4421 L727.3857 107.4421 L727.3857 147.4421 L647.3857 147.4421 Z" stroke="none" clip-path="url(#clipPath2)"/>
    </g>
    <g text-rendering="geometricPrecision" stroke-miterlimit="1.45" shape-rendering="geometricPrecision" transform="matrix(1,0,0,1,-107,101)" stroke-linecap="butt">
      <path fill="none" d="M647.3857 107.4421 L727.3857 107.4421 L727.3857 147.4421 L647.3857 147.4421 Z" clip-path="url(#clipPath2)"/>
      <text x="664.707" xml:space="preserve" y="132.1559" clip-path="url(#clipPath2)" font-family="sans-serif" stroke="none">Dekodér</text>
    </g>
    <g fill="url(#linearGradient8)" text-rendering="geometricPrecision" shape-rendering="geometricPrecision" transform="matrix(1,0,0,1,-107,101)" stroke="url(#linearGradient8)">
      <path d="M657.5856 -44.6907 L727.3857 -44.6907 L717.1857 -4.6907 L647.3857 -4.6907 Z" stroke="none" clip-path="url(#clipPath2)"/>
    </g>
    <g text-rendering="geometricPrecision" stroke-miterlimit="1.45" shape-rendering="geometricPrecision" transform="matrix(1,0,0,1,-107,101)" stroke-linecap="butt">
      <path fill="none" d="M657.5856 -44.6907 L727.3857 -44.6907 L717.1857 -4.6907 L647.3857 -4.6907 Z" clip-path="url(#clipPath2)"/>
      <text x="667.0419" xml:space="preserve" y="-19.9769" clip-path="url(#clipPath2)" font-family="sans-serif" stroke="none">Překlad</text>
    </g>
    <g text-rendering="geometricPrecision" stroke-miterlimit="1.45" shape-rendering="geometricPrecision" transform="matrix(1,0,0,1,-107,101)" stroke-linecap="butt">
      <path fill="none" d="M211.6163 -37.1203 L211.6163 1.1173" clip-path="url(#clipPath2)"/>
    </g>
    <g text-rendering="geometricPrecision" stroke-miterlimit="1.45" shape-rendering="geometricPrecision" transform="matrix(1,0,0,1,-107,101)" stroke-linecap="butt">
      <path d="M211.6163 9.1173 L216.6163 -2.8827 L211.6163 0.1173 L206.6163 -2.8827 Z" stroke="none" clip-path="url(#clipPath2)"/>
      <path fill="none" d="M211.6163 49.1604 L211.6163 93.3354" clip-path="url(#clipPath2)"/>
      <path d="M211.6163 101.3354 L216.6163 89.3354 L211.6163 92.3354 L206.6163 89.3354 Z" clip-path="url(#clipPath2)" stroke="none"/>
      <path fill="none" d="M294.4915 127.4421 L368.6657 127.4421" clip-path="url(#clipPath2)"/>
      <path d="M376.6657 127.4421 L364.6657 122.4421 L367.6657 127.4421 L364.6657 132.4421 Z" clip-path="url(#clipPath2)" stroke="none"/>
      <path fill="none" d="M416.6641 24.8783 L416.6641 99.4351" clip-path="url(#clipPath2)"/>
      <path d="M416.6641 107.4351 L421.6641 95.4351 L416.6641 98.4351 L411.6641 95.4351 Z" clip-path="url(#clipPath2)" stroke="none"/>
      <path fill="none" d="M456.6942 109.9865 L489.8581 95.5251" clip-path="url(#clipPath2)"/>
      <path d="M497.1913 92.3274 L484.193 92.5407 L488.9415 95.9248 L488.1901 101.7072 Z" clip-path="url(#clipPath2)" stroke="none"/>
      <path fill="none" d="M612.7054 92.3066 L640.1447 105.2162" clip-path="url(#clipPath2)"/>
      <path d="M647.3836 108.622 L638.6539 98.9891 L639.2399 104.7905 L634.3967 108.0377 Z" clip-path="url(#clipPath2)" stroke="none"/>
      <path fill="none" d="M687.3857 107.4226 L687.3857 3.3392" clip-path="url(#clipPath2)"/>
      <path d="M687.3857 -4.6608 L682.3857 7.3392 L687.3857 4.3392 L692.3857 7.3392 Z" clip-path="url(#clipPath2)" stroke="none"/>
    </g>
  </g>
</svg>
